<svg height="512pt" viewBox="0 -10 512 511" width="512pt" xmlns="http://www.w3.org/2000/svg"><path d="m187.511719 219.445312c0 5.519532 4.476562 9.996094 9.996093 9.996094h145.332032c5.519531 0 9.996094-4.476562 9.996094-9.996094 0-5.523437-4.476563-9.996093-9.996094-9.996093h-145.332032c-5.519531 0-9.996093 4.472656-9.996093 9.996093zm0 0"/><path d="m155.414062 209.449219h-.226562c-5.523438 0-9.996094 4.472656-9.996094 9.996093 0 5.519532 4.472656 9.996094 9.996094 9.996094h.226562c5.519532 0 9.996094-4.476562 9.996094-9.996094 0-5.523437-4.476562-9.996093-9.996094-9.996093zm0 0"/><path d="m197.140625 317.09375h145.359375c5.519531 0 9.996094-4.476562 9.996094-9.996094 0-5.523437-4.476563-9.996094-9.996094-9.996094h-145.359375c-5.523437 0-9.996094 4.472657-9.996094 9.996094 0 5.519532 4.472657 9.996094 9.996094 9.996094zm0 0"/><path d="m154.816406 317.09375h.230469c5.519531 0 9.992187-4.476562 9.992187-9.996094 0-5.523437-4.472656-9.996094-9.992187-9.996094h-.230469c-5.519531 0-9.996094 4.472657-9.996094 9.996094 0 5.519532 4.476563 9.996094 9.996094 9.996094zm0 0"/><path d="m155.414062 386.058594h-.226562c-5.523438 0-9.996094 4.476562-9.996094 9.996094 0 5.519531 4.472656 9.996093 9.996094 9.996093h.226562c5.519532 0 9.996094-4.476562 9.996094-9.996093 0-5.519532-4.476562-9.996094-9.996094-9.996094zm0 0"/><path d="m512 253.226562c0-27.296874-13.210938-57.742187-35.339844-81.4375-22.742187-24.351562-51.195312-38.398437-80.652344-39.949218-1.511718-20.96875-10.1875-40.527344-24.984374-55.925782-17.167969-17.863281-40.265626-27.703124-65.035157-27.703124-11.386719 0-22.710937 2.167968-33.230469 6.320312-8.984374-14.773438-21.285156-27.324219-35.984374-36.644531-17.949219-11.371094-38.710938-17.386719-60.042969-17.386719-61.9375 0-112.328125 50.421875-112.328125 112.398438 0 10.503906 1.4375 20.832031 4.28125 30.820312-18.804688 9.066406-34.914063 22.800781-46.96875 40.125-14.207032 20.421875-21.714844 44.414062-21.714844 69.382812 0 29.496094 10.691406 57.933594 30.101562 80.082032 17.363282 19.808594 40.59375 33.382812 66.105469 38.789062v45.996094c0 16.820312 13.679688 30.503906 30.492188 30.503906h210.613281c4.660156 6.425782 10.128906 12.652344 16.410156 18.664063 2.105469 2.019531 8.257813 7.304687 14.332032 11.980469 11.523437 8.871093 16.480468 10.890624 20.421874 11.199218.351563.023438.796876.058594 1.347657.058594 3.886719 0 12.933593-1.664062 31.703125-19.175781 11.691406-10.90625 22.210937-23.496094 27.453125-32.84375 15.019531-26.71875 15.140625-64.339844 13.324219-87.734375 30.023437-21.015625 49.695312-46.542969 49.695312-97.519532zm-142.289062 20.039063c5.789062 0 10.5 4.714844 10.5 10.511719v31.027344l-55.796876 21.15625c-2.414062.914062-4.320312 2.714843-5.421874 4.964843h-192.292969c-5.789063 0-10.5-4.714843-10.5-10.511719v-46.632812c0-5.800781 4.710937-10.515625 10.5-10.515625zm-243.011719 155.34375c-5.789063 0-10.5-4.71875-10.5-10.511719v-46.664062c0-5.796875 4.710937-10.511719 10.5-10.511719h190.394531c-.132812 8.4375 0 17.835937.207031 25.136719h-119.792969c-5.523437 0-9.996093 4.476562-9.996093 9.996094 0 5.519531 4.472656 9.996093 9.996093 9.996093h121.382813c1.328125 7.71875 3.609375 15.246094 6.839844 22.558594zm304.847656.085937c-8.769531 15.640626-33.261719 38.257813-41.488281 41.515626-5.253906-2.769532-18.4375-13.480469-22.503906-17.382813-18.765626-17.960937-28.84375-37.8125-29.957032-58.992187-.507812-9.804688-.851562-30.007813-.242187-41.402344l52.796875-20.015625 52.265625 20.425781c2.421875 31.722656-1.46875 59.125-10.871094 75.851562zm19.019531-94.132812-50.367187-19.683594v-31.097656c0-7.890625-3.007813-15.089844-7.9375-20.511719 4.929687-5.417969 7.9375-12.617187 7.9375-20.507812v-46.632813c0-16.820312-13.675781-30.507812-30.488281-30.507812h-81.582032c-5.519531 0-9.996094 4.476562-9.996094 9.996094 0 5.523437 4.476563 9.996093 9.996094 9.996093h81.582032c5.789062 0 10.5 4.71875 10.5 10.515625v46.632813c0 5.796875-4.710938 10.511719-10.5 10.511719h-243.011719c-5.789063 0-10.5-4.714844-10.5-10.511719v-46.632813c0-5.800781 4.710937-10.515625 10.5-10.515625h80.390625c5.519531 0 9.996094-4.472656 9.996094-9.996093 0-5.519532-4.476563-9.996094-9.996094-9.996094h-80.390625c-16.8125 0-30.492188 13.6875-30.492188 30.507812v46.632813c0 7.890625 3.011719 15.089843 7.941407 20.507812-4.929688 5.421875-7.941407 12.621094-7.941407 20.511719v46.632812c0 7.890626 3.011719 15.089844 7.941407 20.507813-.59375.65625-1.160157 1.335937-1.695313 2.042969-47.339844-8.984375-82.460937-51.019532-82.460937-99.734375 0-42.214844 25.382812-79.378907 64.667968-94.679688 5.109375-1.992187 7.664063-7.730469 5.71875-12.859375-3.972656-10.46875-5.984375-21.503906-5.984375-32.792968 0-50.953126 41.421875-92.40625 92.335938-92.40625 35.355469 0 67.082031 19.707031 82.800781 51.429687 1.195312 2.417969 3.320312 4.25 5.890625 5.078125 2.5625.824219 5.359375.582031 7.742187-.679688 10.167969-5.386718 21.214844-8.113281 32.824219-8.113281 19.28125 0 37.257813 7.65625 50.621094 21.5625 13.398437 13.941407 20.355469 32.269531 19.585937 51.609375-.109374 2.785156.945313 5.492188 2.917969 7.464844 1.972657 1.972656 4.679688 3.023438 7.460938 2.921875 1.328125-.050781 2.628906-.078125 3.976562-.078125 25.785157 0 51.175781 11.984375 71.5 33.746094 18.761719 20.089844 29.960938 45.433594 29.960938 67.796875-.003907 42.898437-15.128907 63.015625-41.445313 81.332031zm0 0"/><path d="m412.457031 374.9375-30.09375 31.246094-9.355469-9.054688c-3.964843-3.84375-10.292968-3.738281-14.136718.226563-3.839844 3.964843-3.734375 10.292969.230468 14.132812l16.554688 16.03125c1.863281 1.804688 4.359375 2.8125 6.953125 2.8125h.171875c2.65625-.046875 5.183594-1.148437 7.027344-3.0625l37.046875-38.464843c3.832031-3.976563 3.710937-10.300782-.265625-14.132813-3.972656-3.828125-10.300782-3.710937-14.132813.265625zm0 0"/><path d="m248.191406 185.613281h.199219c5.519531 0 9.996094-4.476562 9.996094-9.996093 0-5.519532-4.476563-9.996094-9.996094-9.996094h-.199219c-5.519531 0-9.996094 4.476562-9.996094 9.996094 0 5.519531 4.476563 9.996093 9.996094 9.996093zm0 0"/></svg>